<?xml version="1.0" encoding="UTF-8"?>
<svg id="Layer_1" data-name="Layer 1" xmlns="http://www.w3.org/2000/svg" viewBox="0 0 64 64">
  <defs>
    <style>
      .cls-1 {
        fill-rule: evenodd;
      }
    </style>
  </defs>
  <path class="cls-1" d="M34,22.74c-.77,0-1.4.63-1.4,1.4,0,.39.15.73.41.99.25.25.6.41.99.41.77,0,1.4-.63,1.4-1.4s-.63-1.4-1.4-1.4ZM29.81,24.13c0-2.31,1.88-4.19,4.19-4.19s4.19,1.88,4.19,4.19-1.88,4.19-4.19,4.19c-.65,0-1.26-.15-1.81-.41l-2.79,2.79c.26.55.41,1.16.41,1.81s-.15,1.26-.41,1.81l2.79,2.79c.55-.26,1.16-.41,1.81-.41,2.31,0,4.19,1.88,4.19,4.19s-1.88,4.19-4.19,4.19-4.19-1.88-4.19-4.19c0-.65.15-1.26.41-1.81l-2.79-2.79c-.55.26-1.16.41-1.81.41-2.31,0-4.19-1.88-4.19-4.19s1.88-4.19,4.19-4.19c.65,0,1.26.15,1.81.41l2.79-2.79c-.26-.55-.41-1.16-.41-1.81ZM25.62,31.11c-.77,0-1.4.63-1.4,1.4s.63,1.4,1.4,1.4c.39,0,.73-.15.99-.41.25-.25.41-.6.41-.99s-.15-.73-.41-.99c-.25-.25-.6-.41-.99-.41ZM34,39.49c-.39,0-.73.15-.99.41s-.41.6-.41.99c0,.77.63,1.4,1.4,1.4s1.4-.63,1.4-1.4-.63-1.4-1.4-1.4Z"/>
</svg>