<?xml version="1.0" encoding="UTF-8"?>
<svg id="Layer_1" data-name="Layer 1" xmlns="http://www.w3.org/2000/svg" viewBox="0 0 64 64">
  <path d="M25.02,43.17c.29,0,.62-.07.96-.23l6.02-3.28,6.02,3.28c.34.16.67.23.96.23.91,0,1.53-.71,1.48-1.87l-.79-6.66,4.5-4.62c.94-1.23.48-2.55-1.01-2.95l-6.69-1.07-2.95-5.94c-.43-.66-1.02-1-1.6-1s-1.13.3-1.57.91l-3.42,6.02-6.11,1.03c-1.49.42-1.93,1.77-1,3l4.49,4.62-.79,6.66c-.04,1.17.57,1.87,1.48,1.87ZM21.45,28.89l5.8-.98.91-.15.46-.81,3.28-5.78,2.82,5.68.45.9.99.16,6.34,1.02-4.22,4.34-.65.67.11.92.72,6.1-5.53-3.01-.93-.51-.93.51-5.53,3.01.72-6.1.11-.92-.65-.67-4.27-4.38Z"/>
</svg>