<?xml version="1.0" encoding="UTF-8"?>
<svg id="Layer_1" data-name="Layer 1" xmlns="http://www.w3.org/2000/svg" viewBox="0 0 64 64">
  <defs>
    <style>
      .cls-1 {
        fill: #656563;
      }

      .cls-2 {
        fill: #424241;
      }

      .cls-3 {
        fill: #989896;
      }
    </style>
  </defs>
  <rect x="42.3" y="19.95" width="7.18" height="7.45"/>
  <path class="cls-3" d="M30.33,27.84c.08,0,.08.05,0,.07-.04,0-.08,0-.12,0-.02-.03.01-.05.03-.07.03-.02.06,0,.08,0Z"/>
  <g>
    <g>
      <path d="M33.24,25.9c-.84.35-1.85.34-2.68,0-.57-.23-1.08-.52-1.48-.96-.28-.31-.53-.61-.73-.99-.64-1.26-.64-2.73,0-3.98.19-.37.43-.66.71-.97.41-.45.94-.74,1.53-.98.8-.32,1.79-.32,2.6,0,.59.23,1.12.53,1.53.98.28.3.51.6.7.96.66,1.26.66,2.73.02,3.99-.19.37-.44.67-.72.99-.4.43-.89.71-1.47.95Z"/>
      <path d="M14.39,27.4c.05-.18.15-.33.24-.5l.53-1,.51-.97.54-1,.51-.96.54-1.01.51-.96c.18-.34.35-.66.55-1,.2.36.37.67.55,1l.51.96.53,1.01.51.96,1.5,2.82.33.64h-7.86Z"/>
    </g>
    <g>
      <path d="M33.37,27.84s.11.04.19.07c.95-.07,2.62.98,3.4,1.94l.82,1.01.8.98.8.99.82,1.01.73.89s.05.03.07,0l1.99-4.55c.21-.47.39-.91.68-1.36h4.32c.16,0,.26.06.38.13.31.18.44.51.36.87-.07.3-.35.56-.7.57l-2.54.06-1.84,4.35-.43,1.01-.42.97c-.15.36-.28.72-.48,1.07-.22.38-.67.56-1.09.53-.48-.03-.78-.34-1.07-.69l-.75-.9-.79-.97c-.17-.21-.33-.41-.53-.64l-.24,1.54-1.19,7.75h-9.61s-1.15-7.67-1.15-7.67l-.24-1.62c-.2.23-.35.42-.52.63l-.81.98-.77.94c-.27.33-.59.61-1.01.64s-.87-.13-1.09-.5c-.25-.43-.41-.87-.6-1.34l-2.58-6.08-2.5-.06c-.35,0-.65-.23-.72-.56-.19-.51.32-1.01.72-1.01h4.34c.26.42.44.85.64,1.31l1.19,2.74.43.97c.14.32.27.62.42.94.27-.33.51-.62.77-.93l.82-1.01.79-.97.82-1,.82-1c.3-.36.64-.67,1.02-.96.68-.54,1.53-.84,2.38-.97.03-.05.09-.06.12,0,.03-.03.06-.05.11-.07.85,0,2.05-.08,2.92,0Z"/>
      <path class="cls-1" d="M33.56,27.91h-.13s-.08-.01-.06-.07c.07,0,.2-.04.19.07Z"/>
      <path class="cls-2" d="M30.45,27.84s-.01.06-.03.07c-.03.02-.06,0-.08,0v-.07h.11Z"/>
    </g>
  </g>
</svg>