<?xml version="1.0" encoding="UTF-8"?>
<svg id="Layer_1" data-name="Layer 1" xmlns="http://www.w3.org/2000/svg" viewBox="0 0 64 64">
  <path d="M3.13,27.16l27.35,17.46c.94.6,2.1.6,3.04,0l27.35-17.46c1.45-.93,1.95-2.99,1.1-4.59-.27-.51-.65-.93-1.1-1.22L33.52,3.89c-.94-.6-2.1-.6-3.04,0L3.13,21.35c-1.45.93-1.95,2.99-1.1,4.59.27.51.65.93,1.1,1.22h0ZM32,10.67l21.27,13.43-21.27,13.6-21.27-13.47,21.27-13.57ZM57.83,36.84l-25.83,16.49L6.17,36.84c-1.45-.94-3.31-.4-4.16,1.2,0,0,0,0,0,0-.84,1.6-.35,3.66,1.11,4.59,0,0,.01,0,.02.01l27.35,17.46c.94.6,2.1.6,3.04,0l27.35-17.46c1.46-.92,1.97-2.97,1.13-4.58,0,0,0-.01-.01-.02-.84-1.6-2.7-2.15-4.15-1.21,0,0,0,0,0,0h0Z"/>
</svg>