<?xml version="1.0" encoding="UTF-8"?>
<svg id="Layer_1" data-name="Layer 1" xmlns="http://www.w3.org/2000/svg" viewBox="0 0 64 64">
  <path d="M16.48,29.64l14.69,8.49c.5.29,1.13.29,1.63,0l14.69-8.49c.78-.45,1.05-1.45.59-2.23-.14-.25-.35-.45-.59-.59l-14.69-8.49c-.5-.29-1.13-.29-1.63,0l-14.69,8.49c-.78.45-1.05,1.45-.59,2.23.14.25.35.45.59.59h0ZM31.98,21.63l11.42,6.53-11.42,6.61-11.42-6.54,11.42-6.59ZM45.86,34.34l-13.87,8.01-13.87-8.01c-.78-.46-1.78-.19-2.23.58,0,0,0,0,0,0-.45.78-.19,1.78.59,2.23,0,0,0,0,0,0l14.69,8.49c.5.29,1.13.29,1.63,0l14.69-8.49c.78-.45,1.06-1.44.61-2.23,0,0,0,0,0,0-.45-.78-1.45-1.04-2.23-.59,0,0,0,0,0,0h0Z"/>
</svg>