<?xml version="1.0" encoding="UTF-8"?>
<svg id="Layer_1" data-name="Layer 1" xmlns="http://www.w3.org/2000/svg" xmlns:xlink="http://www.w3.org/1999/xlink" viewBox="0 0 64 64">
  <defs>
    <style>
      .cls-1 {
        fill: none;
      }

      .cls-2 {
        clip-path: url(#clippath);
      }
    </style>
    <clipPath id="clippath">
      <rect class="cls-1" x="14.09" y="12.99" width="35.79" height="35.79"/>
    </clipPath>
  </defs>
  <g class="cls-2">
    <g>
      <path d="M31.9,38.63c-6.59,0-11.93-5.34-11.93-11.93s5.34-11.93,11.93-11.93,11.93,5.34,11.93,11.93-5.34,11.93-11.93,11.93ZM31.9,17.75c-4.94,0-8.95,4.01-8.95,8.95s4.01,8.95,8.95,8.95,8.95-4.01,8.95-8.95c-.02-4.93-4.02-8.92-8.95-8.92v-.03Z"/>
      <path d="M26.43,46.98c-.29,0-.57-.09-.82-.24-.42-.28-.67-.75-.67-1.25v-9.9c0-.82.67-1.49,1.49-1.49s1.49.67,1.49,1.49v7.59l3.76-1.7c.75-.34,1.64,0,1.98.75.34.75,0,1.64-.75,1.98h0l-5.86,2.64c-.19.09-.4.13-.61.13Z"/>
      <path d="M38.15,46.98c-.21,0-.42-.05-.61-.13l-5.86-2.64c-.75-.34-1.09-1.22-.75-1.98.34-.75,1.22-1.09,1.98-.75h0l3.76,1.7v-7.59c0-.82.67-1.49,1.49-1.49s1.49.67,1.49,1.49v9.9c0,.5-.25.98-.67,1.25-.25.15-.53.23-.82.24Z"/>
    </g>
  </g>
</svg>