<?xml version="1.0" encoding="UTF-8"?>
<svg id="Layer_1" data-name="Layer 1" xmlns="http://www.w3.org/2000/svg" xmlns:xlink="http://www.w3.org/1999/xlink" viewBox="0 0 64 64">
  <defs>
    <style>
      .cls-1 {
        fill: none;
      }

      .cls-2 {
        clip-path: url(#clippath);
      }
    </style>
    <clipPath id="clippath">
      <rect class="cls-1" x="15.85" y="15.85" width="32.31" height="32.31"/>
    </clipPath>
  </defs>
  <g class="cls-2">
    <g>
      <path d="M31.92,38.99c-5.95,0-10.77-4.82-10.77-10.77s4.82-10.77,10.77-10.77,10.77,4.82,10.77,10.77-4.82,10.77-10.77,10.77ZM31.92,20.14c-4.46,0-8.08,3.62-8.08,8.08s3.62,8.08,8.08,8.08,8.08-3.62,8.08-8.08c-.01-4.45-3.63-8.05-8.08-8.05v-.03Z"/>
      <path d="M26.98,46.53c-.26,0-.52-.08-.74-.22-.38-.25-.61-.68-.61-1.13v-8.94c0-.74.6-1.35,1.35-1.35s1.35.6,1.35,1.35v6.85l3.39-1.53c.68-.3,1.48,0,1.78.68.3.68,0,1.48-.68,1.78h0l-5.29,2.38c-.17.08-.36.12-.55.12Z"/>
      <path d="M37.56,46.53c-.19,0-.38-.04-.55-.12l-5.29-2.38c-.68-.3-.98-1.1-.68-1.78.3-.68,1.1-.98,1.78-.68h0l3.39,1.53v-6.85c0-.74.6-1.35,1.35-1.35s1.35.6,1.35,1.35v8.94c0,.46-.23.88-.61,1.13-.22.14-.48.21-.74.22Z"/>
    </g>
  </g>
</svg>