<?xml version="1.0" encoding="UTF-8"?>
<svg id="Layer_1" data-name="Layer 1" xmlns="http://www.w3.org/2000/svg" viewBox="0 0 64 64">
  <defs>
    <style>
      .cls-1 {
        fill: none;
        stroke: #000;
        stroke-linecap: round;
        stroke-linejoin: round;
        stroke-width: 6.52px;
      }
    </style>
  </defs>
  <path class="cls-1" d="M19.85,11.05h39.5M19.85,32h39.5M19.85,52.96h39.5M6.17,11.04h.03M6.17,32h.03M6.17,52.96h.03M7.69,11.04c0,.96-.68,1.75-1.52,1.75s-1.52-.78-1.52-1.75.68-1.75,1.52-1.75,1.52.78,1.52,1.75ZM7.69,32c0,.96-.68,1.75-1.52,1.75s-1.52-.78-1.52-1.75.68-1.75,1.52-1.75,1.52.78,1.52,1.75ZM7.69,52.96c0,.96-.68,1.75-1.52,1.75s-1.52-.78-1.52-1.75.68-1.75,1.52-1.75,1.52.78,1.52,1.75Z"/>
</svg>